<svg id="Group_1" data-name="Group 1" xmlns="http://www.w3.org/2000/svg" xmlns:xlink="http://www.w3.org/1999/xlink" width="430" height="430" viewBox="0 0 430 430">
  <defs>
    <linearGradient id="linear-gradient" x1="0.805" y1="0.897" x2="0.21" y2="0.093" gradientUnits="objectBoundingBox">
      <stop offset="0" stop-color="#0e1015"/>
      <stop offset="1" stop-color="gray"/>
    </linearGradient>
    <filter id="Exclusion_1" x="32" y="35" width="366" height="366" filterUnits="userSpaceOnUse">
      <feOffset dy="3" input="SourceAlpha"/>
      <feGaussianBlur stdDeviation="3" result="blur"/>
      <feFlood flood-opacity="0.161"/>
      <feComposite operator="in" in2="blur"/>
      <feComposite in="SourceGraphic"/>
    </filter>
    <filter id="Exclusion_1-2" x="32" y="35" width="366" height="366" filterUnits="userSpaceOnUse">
      <feOffset dy="3" input="SourceAlpha"/>
      <feGaussianBlur stdDeviation="3" result="blur-2"/>
      <feFlood flood-opacity="0.761" result="color"/>
      <feComposite operator="out" in="SourceGraphic" in2="blur-2"/>
      <feComposite operator="in" in="color"/>
      <feComposite operator="in" in2="SourceGraphic"/>
    </filter>
    <filter id="Polygon_1" x="76" y="65" width="279" height="242" filterUnits="userSpaceOnUse">
      <feOffset dy="3" input="SourceAlpha"/>
      <feGaussianBlur stdDeviation="3" result="blur-3"/>
      <feFlood flood-opacity="0.161"/>
      <feComposite operator="in" in2="blur-3"/>
    </filter>
    <filter id="Polygon_1-2" x="76" y="65" width="279" height="242" filterUnits="userSpaceOnUse">
      <feOffset dy="3" input="SourceAlpha"/>
      <feGaussianBlur stdDeviation="3" result="blur-4"/>
      <feFlood flood-opacity="0.161" result="color-2"/>
      <feComposite operator="out" in="SourceGraphic" in2="blur-4"/>
      <feComposite operator="in" in="color-2"/>
      <feComposite operator="in" in2="SourceGraphic"/>
    </filter>
  </defs>
  <circle id="Ellipse_1" data-name="Ellipse 1" cx="215" cy="215" r="215" fill="#0e1015"/>
  <ellipse id="Ellipse_2" data-name="Ellipse 2" cx="200" cy="199.5" rx="200" ry="199.5" transform="translate(15 16)" fill="url(#linear-gradient)"/>
  <g data-type="innerShadowGroup">
    <g transform="matrix(1, 0, 0, 1, 0, 0)" filter="url(#Exclusion_1)">
      <path id="Exclusion_1-3" data-name="Exclusion 1" d="M174,348a175.284,175.284,0,0,1-35.067-3.535,173.046,173.046,0,0,1-62.218-26.182,174.509,174.509,0,0,1-63.041-76.555A173.124,173.124,0,0,1,3.535,209.067a175.7,175.7,0,0,1,0-70.134A173.047,173.047,0,0,1,29.716,76.715a174.507,174.507,0,0,1,76.555-63.041A173.124,173.124,0,0,1,138.933,3.535a175.7,175.7,0,0,1,70.134,0,173.049,173.049,0,0,1,62.218,26.181,174.508,174.508,0,0,1,63.041,76.555,173.121,173.121,0,0,1,10.139,32.662,175.7,175.7,0,0,1,0,70.134,173.048,173.048,0,0,1-26.182,62.218,174.51,174.51,0,0,1-76.555,63.041,173.12,173.12,0,0,1-32.662,10.139A175.283,175.283,0,0,1,174,348Zm0-320C93.5,28,28,93.5,28,174S93.5,320,174,320s146-65.5,146-146S254.5,28,174,28Z" transform="translate(41 41)" fill="#1ade15"/>
    </g>
    <g transform="matrix(1, 0, 0, 1, 0, 0)" filter="url(#Exclusion_1-2)">
      <path id="Exclusion_1-4" data-name="Exclusion 1" d="M174,348a175.284,175.284,0,0,1-35.067-3.535,173.046,173.046,0,0,1-62.218-26.182,174.509,174.509,0,0,1-63.041-76.555A173.124,173.124,0,0,1,3.535,209.067a175.7,175.7,0,0,1,0-70.134A173.047,173.047,0,0,1,29.716,76.715a174.507,174.507,0,0,1,76.555-63.041A173.124,173.124,0,0,1,138.933,3.535a175.7,175.7,0,0,1,70.134,0,173.049,173.049,0,0,1,62.218,26.181,174.508,174.508,0,0,1,63.041,76.555,173.121,173.121,0,0,1,10.139,32.662,175.7,175.7,0,0,1,0,70.134,173.048,173.048,0,0,1-26.182,62.218,174.51,174.51,0,0,1-76.555,63.041,173.12,173.12,0,0,1-32.662,10.139A175.283,175.283,0,0,1,174,348Zm0-320C93.5,28,28,93.5,28,174S93.5,320,174,320s146-65.5,146-146S254.5,28,174,28Z" transform="translate(41 41)" fill="#fff"/>
    </g>
  </g>
  <g data-type="innerShadowGroup">
    <g transform="matrix(1, 0, 0, 1, 0, 0)" filter="url(#Polygon_1)">
      <g id="Polygon_1-3" data-name="Polygon 1" transform="translate(85 71)" fill="#fff">
        <path d="M 205.6170501708984 198.7789154052734 C 204.7122344970703 198.7790222167969 203.7882385253906 198.5768127441406 202.8707885742188 198.1778564453125 L 133.4907836914062 168.0086364746094 C 132.5414276123047 167.5958251953125 131.5352020263672 167.3865051269531 130.5 167.3865051269531 C 129.4647979736328 167.3865051269531 128.4585723876953 167.5958251953125 127.5092163085938 168.0086364746094 L 58.12921905517578 198.1778564453125 C 57.21202087402344 198.5766754150391 56.28802108764648 198.7789154052734 55.38289260864258 198.7789154052734 C 54.0052604675293 198.7789154052734 52.6901969909668 198.3098449707031 51.57986831665039 197.4224090576172 C 50.53639221191406 196.5884094238281 49.72989273071289 195.4169311523438 49.30895614624023 194.1238098144531 C 48.89876174926758 192.8636779785156 48.86865234375 191.5628509521484 49.2219123840332 190.3619537353516 C 49.61608505249023 189.0219421386719 50.45349884033203 187.8782196044922 51.71091461181641 186.9625701904297 L 112.6401977539062 142.5937652587891 C 114.3384552001953 141.3570709228516 115.4460678100586 139.4503326416016 115.6790008544922 137.3624420166016 L 124.0400619506836 62.41530609130859 C 124.4854583740234 58.42298126220703 127.6054763793945 56.63595962524414 130.5 56.63595962524414 C 133.3945159912109 56.63595962524414 136.5145263671875 58.42298126220703 136.9599151611328 62.41528701782227 L 145.3209991455078 137.3624420166016 C 145.5539093017578 139.4502868652344 146.6614990234375 141.3570404052734 148.3597564697266 142.5937652587891 L 209.2890930175781 186.9625396728516 C 210.5463104248047 187.8780517578125 211.3836059570312 189.0215911865234 211.7777404785156 190.3613891601562 C 212.1309356689453 191.5621185302734 212.1008911132812 192.8627777099609 211.6908264160156 194.122802734375 C 211.2699279785156 195.4160461425781 210.4634552001953 196.5876770019531 209.4199523925781 197.421875 C 208.3096466064453 198.3094787597656 206.9946136474609 198.7787475585938 205.6170501708984 198.7789154052734 Z" stroke="none"/>
        <path d="M 130.5 57.13597106933594 C 127.828125 57.13597106933594 124.9481048583984 58.78550720214844 124.5369720458984 62.47073364257812 L 116.1758880615234 137.4178771972656 C 115.9274597167969 139.6449584960938 114.7460174560547 141.6788024902344 112.9345245361328 142.9979248046875 L 52.00523376464844 187.3667297363281 C 49.793212890625 188.9775390625 48.96299743652344 191.4456787109375 49.78439331054688 193.9690246582031 C 50.17546081542969 195.1703796386719 50.9239501953125 196.2580871582031 51.89204406738281 197.0318145751953 C 52.91281127929688 197.84765625 54.11991882324219 198.2789001464844 55.38288879394531 198.2789001464844 C 56.218994140625 198.2789001464844 57.07591247558594 198.0906219482422 57.92985534667969 197.7193145751953 L 127.3098297119141 167.5500946044922 C 128.3224334716797 167.1097412109375 129.3957672119141 166.8864898681641 130.5 166.8864898681641 C 131.6042175292969 166.8864898681641 132.6775360107422 167.1097412109375 133.6901550292969 167.5500946044922 L 203.0701751708984 197.7193145751953 C 203.924072265625 198.0906219482422 204.7809753417969 198.2789001464844 205.6171112060547 198.2789001464844 C 206.8798828125 198.2789001464844 208.0868682861328 197.84765625 209.1075897216797 197.0317687988281 C 210.0756225585938 196.2579956054688 210.8241271972656 195.1701965332031 211.2151947021484 193.9688110351562 C 212.0366058349609 191.4454193115234 211.2065124511719 188.9773559570312 208.9947357177734 187.3667297363281 L 148.0654296875 142.9979248046875 C 146.2539672851562 141.6788024902344 145.0725250244141 139.6449432373047 144.8240661621094 137.4178466796875 L 136.4629974365234 62.47073364257812 C 136.0518798828125 58.78550720214844 133.171875 57.13597106933594 130.5 57.13597106933594 M 130.5 56.13595581054688 C 133.7469787597656 56.13595581054688 136.9939270019531 58.21058654785156 137.4568176269531 62.35986328125 L 145.8179016113281 137.3069763183594 C 146.0358581542969 139.2605590820312 147.0651245117188 141.0324401855469 148.6541137695312 142.1895446777344 L 209.5833892822266 186.558349609375 C 216.343505859375 191.4810485839844 210.3402709960938 201.9710998535156 202.67138671875 198.6363525390625 L 133.2913818359375 168.4671325683594 C 131.510986328125 167.6929321289062 129.4890289306641 167.6929321289062 127.7086029052734 168.4671325683594 L 58.32861328125 198.6363525390625 C 50.65965270996094 201.9711608886719 44.65650939941406 191.4810485839844 51.41658020019531 186.558349609375 L 112.3458709716797 142.1895446777344 C 113.9348754882812 141.0324401855469 114.9641265869141 139.2605590820312 115.1820678710938 137.3070068359375 L 123.5431518554688 62.35986328125 C 124.0060424804688 58.21060180664062 127.2530212402344 56.13595581054688 130.5 56.13595581054688 Z" stroke="none" fill="#707070"/>
      </g>
    </g>
    <g id="Polygon_1-4" data-name="Polygon 1" transform="translate(85 71)" fill="#fff">
      <path d="M 205.6170501708984 198.7789154052734 C 204.7122344970703 198.7790222167969 203.7882385253906 198.5768127441406 202.8707885742188 198.1778564453125 L 133.4907836914062 168.0086364746094 C 132.5414276123047 167.5958251953125 131.5352020263672 167.3865051269531 130.5 167.3865051269531 C 129.4647979736328 167.3865051269531 128.4585723876953 167.5958251953125 127.5092163085938 168.0086364746094 L 58.12921905517578 198.1778564453125 C 57.21202087402344 198.5766754150391 56.28802108764648 198.7789154052734 55.38289260864258 198.7789154052734 C 54.0052604675293 198.7789154052734 52.6901969909668 198.3098449707031 51.57986831665039 197.4224090576172 C 50.53639221191406 196.5884094238281 49.72989273071289 195.4169311523438 49.30895614624023 194.1238098144531 C 48.89876174926758 192.8636779785156 48.86865234375 191.5628509521484 49.2219123840332 190.3619537353516 C 49.61608505249023 189.0219421386719 50.45349884033203 187.8782196044922 51.71091461181641 186.9625701904297 L 112.6401977539062 142.5937652587891 C 114.3384552001953 141.3570709228516 115.4460678100586 139.4503326416016 115.6790008544922 137.3624420166016 L 124.0400619506836 62.41530609130859 C 124.4854583740234 58.42298126220703 127.6054763793945 56.63595962524414 130.5 56.63595962524414 C 133.3945159912109 56.63595962524414 136.5145263671875 58.42298126220703 136.9599151611328 62.41528701782227 L 145.3209991455078 137.3624420166016 C 145.5539093017578 139.4502868652344 146.6614990234375 141.3570404052734 148.3597564697266 142.5937652587891 L 209.2890930175781 186.9625396728516 C 210.5463104248047 187.8780517578125 211.3836059570312 189.0215911865234 211.7777404785156 190.3613891601562 C 212.1309356689453 191.5621185302734 212.1008911132812 192.8627777099609 211.6908264160156 194.122802734375 C 211.2699279785156 195.4160461425781 210.4634552001953 196.5876770019531 209.4199523925781 197.421875 C 208.3096466064453 198.3094787597656 206.9946136474609 198.7787475585938 205.6170501708984 198.7789154052734 Z" stroke="none"/>
      <path d="M 130.5 57.13597106933594 C 127.828125 57.13597106933594 124.9481048583984 58.78550720214844 124.5369720458984 62.47073364257812 L 116.1758880615234 137.4178771972656 C 115.9274597167969 139.6449584960938 114.7460174560547 141.6788024902344 112.9345245361328 142.9979248046875 L 52.00523376464844 187.3667297363281 C 49.793212890625 188.9775390625 48.96299743652344 191.4456787109375 49.78439331054688 193.9690246582031 C 50.17546081542969 195.1703796386719 50.9239501953125 196.2580871582031 51.89204406738281 197.0318145751953 C 52.91281127929688 197.84765625 54.11991882324219 198.2789001464844 55.38288879394531 198.2789001464844 C 56.218994140625 198.2789001464844 57.07591247558594 198.0906219482422 57.92985534667969 197.7193145751953 L 127.3098297119141 167.5500946044922 C 128.3224334716797 167.1097412109375 129.3957672119141 166.8864898681641 130.5 166.8864898681641 C 131.6042175292969 166.8864898681641 132.6775360107422 167.1097412109375 133.6901550292969 167.5500946044922 L 203.0701751708984 197.7193145751953 C 203.924072265625 198.0906219482422 204.7809753417969 198.2789001464844 205.6171112060547 198.2789001464844 C 206.8798828125 198.2789001464844 208.0868682861328 197.84765625 209.1075897216797 197.0317687988281 C 210.0756225585938 196.2579956054688 210.8241271972656 195.1701965332031 211.2151947021484 193.9688110351562 C 212.0366058349609 191.4454193115234 211.2065124511719 188.9773559570312 208.9947357177734 187.3667297363281 L 148.0654296875 142.9979248046875 C 146.2539672851562 141.6788024902344 145.0725250244141 139.6449432373047 144.8240661621094 137.4178466796875 L 136.4629974365234 62.47073364257812 C 136.0518798828125 58.78550720214844 133.171875 57.13597106933594 130.5 57.13597106933594 M 130.5 56.13595581054688 C 133.7469787597656 56.13595581054688 136.9939270019531 58.21058654785156 137.4568176269531 62.35986328125 L 145.8179016113281 137.3069763183594 C 146.0358581542969 139.2605590820312 147.0651245117188 141.0324401855469 148.6541137695312 142.1895446777344 L 209.5833892822266 186.558349609375 C 216.343505859375 191.4810485839844 210.3402709960938 201.9710998535156 202.67138671875 198.6363525390625 L 133.2913818359375 168.4671325683594 C 131.510986328125 167.6929321289062 129.4890289306641 167.6929321289062 127.7086029052734 168.4671325683594 L 58.32861328125 198.6363525390625 C 50.65965270996094 201.9711608886719 44.65650939941406 191.4810485839844 51.41658020019531 186.558349609375 L 112.3458709716797 142.1895446777344 C 113.9348754882812 141.0324401855469 114.9641265869141 139.2605590820312 115.1820678710938 137.3070068359375 L 123.5431518554688 62.35986328125 C 124.0060424804688 58.21060180664062 127.2530212402344 56.13595581054688 130.5 56.13595581054688 Z" stroke="none"/>
    </g>
    <g transform="matrix(1, 0, 0, 1, 0, 0)" filter="url(#Polygon_1-2)">
      <g id="Polygon_1-5" data-name="Polygon 1" transform="translate(85 71)" fill="#fff">
        <path d="M 205.6170501708984 198.7789154052734 C 204.7122344970703 198.7790222167969 203.7882385253906 198.5768127441406 202.8707885742188 198.1778564453125 L 133.4907836914062 168.0086364746094 C 132.5414276123047 167.5958251953125 131.5352020263672 167.3865051269531 130.5 167.3865051269531 C 129.4647979736328 167.3865051269531 128.4585723876953 167.5958251953125 127.5092163085938 168.0086364746094 L 58.12921905517578 198.1778564453125 C 57.21202087402344 198.5766754150391 56.28802108764648 198.7789154052734 55.38289260864258 198.7789154052734 C 54.0052604675293 198.7789154052734 52.6901969909668 198.3098449707031 51.57986831665039 197.4224090576172 C 50.53639221191406 196.5884094238281 49.72989273071289 195.4169311523438 49.30895614624023 194.1238098144531 C 48.89876174926758 192.8636779785156 48.86865234375 191.5628509521484 49.2219123840332 190.3619537353516 C 49.61608505249023 189.0219421386719 50.45349884033203 187.8782196044922 51.71091461181641 186.9625701904297 L 112.6401977539062 142.5937652587891 C 114.3384552001953 141.3570709228516 115.4460678100586 139.4503326416016 115.6790008544922 137.3624420166016 L 124.0400619506836 62.41530609130859 C 124.4854583740234 58.42298126220703 127.6054763793945 56.63595962524414 130.5 56.63595962524414 C 133.3945159912109 56.63595962524414 136.5145263671875 58.42298126220703 136.9599151611328 62.41528701782227 L 145.3209991455078 137.3624420166016 C 145.5539093017578 139.4502868652344 146.6614990234375 141.3570404052734 148.3597564697266 142.5937652587891 L 209.2890930175781 186.9625396728516 C 210.5463104248047 187.8780517578125 211.3836059570312 189.0215911865234 211.7777404785156 190.3613891601562 C 212.1309356689453 191.5621185302734 212.1008911132812 192.8627777099609 211.6908264160156 194.122802734375 C 211.2699279785156 195.4160461425781 210.4634552001953 196.5876770019531 209.4199523925781 197.421875 C 208.3096466064453 198.3094787597656 206.9946136474609 198.7787475585938 205.6170501708984 198.7789154052734 Z" stroke="none"/>
        <path d="M 130.5 57.13597106933594 C 127.828125 57.13597106933594 124.9481048583984 58.78550720214844 124.5369720458984 62.47073364257812 L 116.1758880615234 137.4178771972656 C 115.9274597167969 139.6449584960938 114.7460174560547 141.6788024902344 112.9345245361328 142.9979248046875 L 52.00523376464844 187.3667297363281 C 49.793212890625 188.9775390625 48.96299743652344 191.4456787109375 49.78439331054688 193.9690246582031 C 50.17546081542969 195.1703796386719 50.9239501953125 196.2580871582031 51.89204406738281 197.0318145751953 C 52.91281127929688 197.84765625 54.11991882324219 198.2789001464844 55.38288879394531 198.2789001464844 C 56.218994140625 198.2789001464844 57.07591247558594 198.0906219482422 57.92985534667969 197.7193145751953 L 127.3098297119141 167.5500946044922 C 128.3224334716797 167.1097412109375 129.3957672119141 166.8864898681641 130.5 166.8864898681641 C 131.6042175292969 166.8864898681641 132.6775360107422 167.1097412109375 133.6901550292969 167.5500946044922 L 203.0701751708984 197.7193145751953 C 203.924072265625 198.0906219482422 204.7809753417969 198.2789001464844 205.6171112060547 198.2789001464844 C 206.8798828125 198.2789001464844 208.0868682861328 197.84765625 209.1075897216797 197.0317687988281 C 210.0756225585938 196.2579956054688 210.8241271972656 195.1701965332031 211.2151947021484 193.9688110351562 C 212.0366058349609 191.4454193115234 211.2065124511719 188.9773559570312 208.9947357177734 187.3667297363281 L 148.0654296875 142.9979248046875 C 146.2539672851562 141.6788024902344 145.0725250244141 139.6449432373047 144.8240661621094 137.4178466796875 L 136.4629974365234 62.47073364257812 C 136.0518798828125 58.78550720214844 133.171875 57.13597106933594 130.5 57.13597106933594 M 130.5 56.13595581054688 C 133.7469787597656 56.13595581054688 136.9939270019531 58.21058654785156 137.4568176269531 62.35986328125 L 145.8179016113281 137.3069763183594 C 146.0358581542969 139.2605590820312 147.0651245117188 141.0324401855469 148.6541137695312 142.1895446777344 L 209.5833892822266 186.558349609375 C 216.343505859375 191.4810485839844 210.3402709960938 201.9710998535156 202.67138671875 198.6363525390625 L 133.2913818359375 168.4671325683594 C 131.510986328125 167.6929321289062 129.4890289306641 167.6929321289062 127.7086029052734 168.4671325683594 L 58.32861328125 198.6363525390625 C 50.65965270996094 201.9711608886719 44.65650939941406 191.4810485839844 51.41658020019531 186.558349609375 L 112.3458709716797 142.1895446777344 C 113.9348754882812 141.0324401855469 114.9641265869141 139.2605590820312 115.1820678710938 137.3070068359375 L 123.5431518554688 62.35986328125 C 124.0060424804688 58.21060180664062 127.2530212402344 56.13595581054688 130.5 56.13595581054688 Z" stroke="none"/>
      </g>
    </g>
    <g id="Polygon_1-6" data-name="Polygon 1" transform="translate(85 71)" fill="none">
      <path d="M 205.6170501708984 198.7789154052734 C 204.7122344970703 198.7790222167969 203.7882385253906 198.5768127441406 202.8707885742188 198.1778564453125 L 133.4907836914062 168.0086364746094 C 132.5414276123047 167.5958251953125 131.5352020263672 167.3865051269531 130.5 167.3865051269531 C 129.4647979736328 167.3865051269531 128.4585723876953 167.5958251953125 127.5092163085938 168.0086364746094 L 58.12921905517578 198.1778564453125 C 57.21202087402344 198.5766754150391 56.28802108764648 198.7789154052734 55.38289260864258 198.7789154052734 C 54.0052604675293 198.7789154052734 52.6901969909668 198.3098449707031 51.57986831665039 197.4224090576172 C 50.53639221191406 196.5884094238281 49.72989273071289 195.4169311523438 49.30895614624023 194.1238098144531 C 48.89876174926758 192.8636779785156 48.86865234375 191.5628509521484 49.2219123840332 190.3619537353516 C 49.61608505249023 189.0219421386719 50.45349884033203 187.8782196044922 51.71091461181641 186.9625701904297 L 112.6401977539062 142.5937652587891 C 114.3384552001953 141.3570709228516 115.4460678100586 139.4503326416016 115.6790008544922 137.3624420166016 L 124.0400619506836 62.41530609130859 C 124.4854583740234 58.42298126220703 127.6054763793945 56.63595962524414 130.5 56.63595962524414 C 133.3945159912109 56.63595962524414 136.5145263671875 58.42298126220703 136.9599151611328 62.41528701782227 L 145.3209991455078 137.3624420166016 C 145.5539093017578 139.4502868652344 146.6614990234375 141.3570404052734 148.3597564697266 142.5937652587891 L 209.2890930175781 186.9625396728516 C 210.5463104248047 187.8780517578125 211.3836059570312 189.0215911865234 211.7777404785156 190.3613891601562 C 212.1309356689453 191.5621185302734 212.1008911132812 192.8627777099609 211.6908264160156 194.122802734375 C 211.2699279785156 195.4160461425781 210.4634552001953 196.5876770019531 209.4199523925781 197.421875 C 208.3096466064453 198.3094787597656 206.9946136474609 198.7787475585938 205.6170501708984 198.7789154052734 Z" stroke="none"/>
      <path d="M 130.5 57.13597106933594 C 127.828125 57.13597106933594 124.9481048583984 58.78550720214844 124.5369720458984 62.47073364257812 L 116.1758880615234 137.4178771972656 C 115.9274597167969 139.6449584960938 114.7460174560547 141.6788024902344 112.9345245361328 142.9979248046875 L 52.00523376464844 187.3667297363281 C 49.793212890625 188.9775390625 48.96299743652344 191.4456787109375 49.78439331054688 193.9690246582031 C 50.17546081542969 195.1703796386719 50.9239501953125 196.2580871582031 51.89204406738281 197.0318145751953 C 52.91281127929688 197.84765625 54.11991882324219 198.2789001464844 55.38288879394531 198.2789001464844 C 56.218994140625 198.2789001464844 57.07591247558594 198.0906219482422 57.92985534667969 197.7193145751953 L 127.3098297119141 167.5500946044922 C 128.3224334716797 167.1097412109375 129.3957672119141 166.8864898681641 130.5 166.8864898681641 C 131.6042175292969 166.8864898681641 132.6775360107422 167.1097412109375 133.6901550292969 167.5500946044922 L 203.0701751708984 197.7193145751953 C 203.924072265625 198.0906219482422 204.7809753417969 198.2789001464844 205.6171112060547 198.2789001464844 C 206.8798828125 198.2789001464844 208.0868682861328 197.84765625 209.1075897216797 197.0317687988281 C 210.0756225585938 196.2579956054688 210.8241271972656 195.1701965332031 211.2151947021484 193.9688110351562 C 212.0366058349609 191.4454193115234 211.2065124511719 188.9773559570312 208.9947357177734 187.3667297363281 L 148.0654296875 142.9979248046875 C 146.2539672851562 141.6788024902344 145.0725250244141 139.6449432373047 144.8240661621094 137.4178466796875 L 136.4629974365234 62.47073364257812 C 136.0518798828125 58.78550720214844 133.171875 57.13597106933594 130.5 57.13597106933594 M 130.5 56.13595581054688 C 133.7469787597656 56.13595581054688 136.9939270019531 58.21058654785156 137.4568176269531 62.35986328125 L 145.8179016113281 137.3069763183594 C 146.0358581542969 139.2605590820312 147.0651245117188 141.0324401855469 148.6541137695312 142.1895446777344 L 209.5833892822266 186.558349609375 C 216.343505859375 191.4810485839844 210.3402709960938 201.9710998535156 202.67138671875 198.6363525390625 L 133.2913818359375 168.4671325683594 C 131.510986328125 167.6929321289062 129.4890289306641 167.6929321289062 127.7086029052734 168.4671325683594 L 58.32861328125 198.6363525390625 C 50.65965270996094 201.9711608886719 44.65650939941406 191.4810485839844 51.41658020019531 186.558349609375 L 112.3458709716797 142.1895446777344 C 113.9348754882812 141.0324401855469 114.9641265869141 139.2605590820312 115.1820678710938 137.3070068359375 L 123.5431518554688 62.35986328125 C 124.0060424804688 58.21060180664062 127.2530212402344 56.13595581054688 130.5 56.13595581054688 Z" stroke="none" fill="#707070"/>
    </g>
  </g>
</svg>
